<?xml version="1.0" standalone="no"?>
<!DOCTYPE svg PUBLIC "-//W3C//DTD SVG 20010904//EN" "http://www.w3.org/TR/2001/REC-SVG-20010904/DTD/svg10.dtd">
<svg xmlns="http://www.w3.org/2000/svg" version="1.0" width="1024.000000pt" height="1024.000000pt" viewBox="0 0 1024.000000 1024.000000" preserveAspectRatio="xMidYMid meet">
<metadata>
Created by potrace 1.16, written by Peter Selinger 2001-2019
<meta name="Producer" content="Online-Convert"/></metadata>
<g transform="translate(0.000000,1024.000000) scale(0.100000,-0.100000)" fill="#000000" stroke="none">
<path d="M5211 7760 c-51 -12 -112 -60 -138 -109 -30 -58 -32 -154 -4 -210 70 -136 250 -162 358 -51 91 94 76 265 -29 335 -32 21 -122 48 -147 44 -3 -1 -21 -5 -40 -9z m119 -85 c48 -25 70 -62 70 -117 0 -99 -48 -158 -129 -158 -58 0 -89 16 -118 59 -48 70 -14 190 62 221 32 14 84 11 115 -5z"/>
<path d="M4752 7747 c-93 -10 -93 -10 -88 -36 3 -14 10 -98 16 -186 16 -236 12 -221 61 -217 l41 4 -7 89 -7 89 39 0 c21 0 55 3 76 6 35 6 37 9 37 42 l0 35 -79 -7 -79 -7 -4 55 -3 55 50 6 c28 3 64 6 80 7 27 3 30 7 33 41 l3 37 -38 -2 c-21 0 -80 -6 -131 -11z"/>
<path d="M5612 7516 c-23 -115 -40 -211 -38 -214 3 -2 22 -6 43 -9 l39 -5 13 76 14 77 31 -7 c17 -3 31 -7 32 -8 0 0 14 -39 30 -86 29 -83 30 -84 68 -92 21 -5 41 -7 42 -5 2 2 -10 43 -26 92 -16 49 -29 89 -27 89 89 29 132 129 87 203 -26 43 -61 60 -173 81 l-93 18 -42 -210z m227 90 c19 -20 17 -63 -5 -87 -16 -18 -27 -20 -73 -16 -29 3 -55 8 -57 10 -4 4 11 86 21 113 5 15 94 -1 114 -20z"/>
<path d="M4357 7680 c-64 -15 -119 -29 -121 -31 -4 -4 82 -410 87 -416 2 -1 21 3 43 8 l41 11 -19 80 c-11 44 -18 81 -16 82 2 1 32 9 68 17 64 15 65 15 63 48 0 18 -3 35 -6 37 -3 3 -35 -2 -72 -11 -37 -8 -69 -14 -70 -13 -5 6 -26 101 -23 103 2 1 38 10 81 19 l78 17 -3 35 c-1 20 -5 37 -8 38 -3 2 -58 -9 -123 -24z"/>
<path d="M6097 7613 c-3 -10 -8 -28 -12 -40 -5 -18 1 -23 45 -38 27 -9 50 -20 50 -24 0 -4 -24 -80 -54 -169 l-55 -163 23 -9 c58 -22 55 -25 114 145 30 88 57 162 59 164 2 4 63 -12 97 -25 7 -3 19 11 28 30 l17 34 -142 52 c-78 29 -147 55 -154 57 -6 2 -13 -4 -16 -14z"/>
<path d="M3929 7547 l-126 -49 79 -191 c43 -105 81 -193 83 -196 3 -2 46 12 97 32 51 20 105 41 120 46 25 9 26 13 18 42 -5 17 -12 34 -14 37 -3 3 -39 -9 -81 -27 -41 -17 -79 -31 -83 -31 -9 0 -47 89 -41 94 2 1 33 13 69 25 36 13 66 24 68 26 7 6 -22 65 -31 65 -7 0 -39 -12 -72 -25 -33 -14 -60 -25 -61 -25 -1 0 -9 18 -19 40 -11 24 -15 44 -9 49 5 5 41 21 81 36 68 26 71 28 63 54 -5 14 -10 31 -12 37 -2 6 -56 -10 -129 -39z"/>
<path d="M6474 7323 c-37 -71 -80 -151 -95 -179 -16 -28 -29 -56 -29 -62 0 -9 209 -126 215 -120 8 9 36 70 33 72 -2 1 -32 17 -68 36 -36 18 -67 34 -68 36 -2 1 27 60 66 131 38 70 74 138 81 150 10 21 8 25 -21 43 -18 11 -36 20 -40 20 -4 0 -37 -57 -74 -127z"/>
<path d="M3334 7243 c-54 -37 -101 -68 -102 -69 -5 -3 238 -354 244 -354 8 0 214 144 214 150 0 3 -10 17 -23 32 l-22 27 -67 -49 c-37 -28 -70 -50 -73 -50 -2 0 -17 18 -32 41 -30 45 -34 37 50 90 26 17 47 33 47 36 0 3 -9 18 -21 34 l-21 30 -62 -45 -61 -44 -28 38 c-15 21 -27 41 -27 44 0 3 31 27 70 52 l69 47 -22 28 c-12 15 -24 28 -28 28 -3 1 -50 -29 -105 -66z"/>
<path d="M6782 7113 c-119 -190 -127 -204 -115 -212 114 -78 215 -142 217 -140 9 10 26 49 26 58 0 6 -31 32 -70 57 -38 26 -70 49 -70 51 0 9 54 83 59 81 3 -2 32 -21 64 -43 l59 -39 19 24 c10 14 19 28 19 32 0 4 -29 27 -64 50 l-64 43 24 35 c13 18 25 38 27 44 2 6 40 -15 84 -46 l80 -56 17 35 c9 20 16 37 14 38 -16 13 -218 145 -222 145 -2 0 -49 -71 -104 -157z"/>
<path d="M2956 6951 l-29 -30 139 -153 c76 -84 139 -155 140 -157 2 -2 44 32 94 74 l91 78 -27 28 c-31 32 -30 32 -96 -30 l-38 -35 -26 25 c-14 13 -67 70 -117 127 -50 56 -93 102 -97 102 -3 0 -19 -13 -34 -29z"/>
<path d="M7193 6950 c-65 -39 -70 -97 -18 -200 19 -38 35 -78 35 -88 0 -46 -57 -56 -96 -16 -20 20 -25 33 -22 60 3 28 -2 39 -28 65 l-32 31 -17 -46 c-29 -76 8 -156 90 -196 80 -39 150 -16 182 58 16 39 10 67 -33 153 -39 76 -42 94 -14 109 43 23 106 -30 95 -81 -5 -22 -1 -31 23 -48 17 -12 32 -21 35 -21 12 0 29 74 23 103 -9 45 -53 97 -100 118 -53 24 -83 24 -123 -1z"/>
<path d="M2792 6800 c-38 -44 -38 -47 9 -144 16 -33 28 -60 26 -62 -1 -1 -41 8 -89 21 l-86 23 -32 -40 c-18 -21 -30 -41 -29 -43 2 -1 62 -12 134 -24 l129 -21 66 -65 66 -65 34 35 34 35 -72 67 -71 68 -41 128 c-23 70 -42 127 -43 126 -1 0 -17 -18 -35 -39z"/>
<path d="M7504 6650 c-32 -13 -64 -59 -64 -93 0 -17 12 -66 28 -109 21 -60 25 -82 16 -95 -34 -54 -121 6 -110 76 4 29 0 42 -20 65 -14 15 -26 27 -28 25 -16 -18 -36 -74 -36 -101 0 -73 74 -155 149 -165 118 -16 163 80 104 222 -21 51 -25 70 -16 83 14 24 40 26 69 7 31 -20 44 -53 33 -81 -6 -17 -1 -28 20 -48 15 -14 30 -26 35 -26 4 0 14 16 22 35 44 107 -95 248 -202 205z"/>
<path d="M2431 6341 c-50 -71 -91 -131 -91 -134 0 -3 11 -8 24 -11 13 -3 31 -8 39 -12 9 -3 22 7 36 28 11 18 25 39 29 46 7 10 43 -11 151 -89 78 -56 143 -100 144 -98 2 2 13 17 25 33 12 16 22 32 22 36 0 4 -26 24 -57 45 -32 21 -95 65 -140 98 l-82 60 30 43 c16 23 29 47 29 52 0 8 -50 32 -66 32 -1 0 -44 -58 -93 -129z"/>
<path d="M4910 6433 c-256 -28 -594 -129 -800 -240 -102 -54 -230 -141 -230 -156 0 -6 26 -8 68 -5 68 5 166 36 467 148 315 118 544 155 900 147 251 -5 368 -22 565 -78 135 -39 206 -67 362 -145 70 -35 133 -64 140 -64 20 1 -50 57 -138 110 -220 134 -523 235 -824 276 -96 12 -417 17 -510 7z"/>
<path d="M7677 6224 l-175 -116 61 -97 c33 -53 62 -97 63 -99 3 -4 64 27 64 33 0 2 -18 32 -40 66 l-40 62 151 99 152 99 -24 27 c-13 15 -26 31 -30 35 -3 4 -85 -45 -182 -109z"/>
<path d="M7919 5982 l-87 -127 -71 -29 c-39 -15 -71 -31 -71 -35 1 -3 11 -25 23 -48 l22 -41 67 39 66 39 94 -10 c51 -5 121 -10 155 -10 l61 0 -21 40 c-21 39 -23 40 -77 41 -30 0 -77 4 -103 7 l-48 7 67 84 67 84 -24 44 c-13 24 -26 43 -29 43 -3 -1 -44 -58 -91 -128z"/>
<path d="M2259 6027 c-67 -45 -96 -134 -64 -197 45 -87 124 -81 246 21 50 41 79 48 99 24 26 -32 -28 -115 -76 -115 -22 0 -72 -55 -61 -66 3 -3 23 -8 46 -11 61 -8 122 31 156 102 34 69 29 113 -20 162 -56 56 -117 42 -221 -48 -59 -53 -78 -57 -100 -24 -19 30 2 66 52 89 50 23 84 70 58 80 -32 12 -82 5 -115 -17z"/>
<path d="M1662 5438 c3 -19 13 -24 73 -35 43 -8 75 -19 83 -30 9 -13 12 -143 12 -571 l0 -554 -28 -28 c-22 -21 -42 -30 -85 -35 -51 -7 -57 -10 -57 -31 l0 -24 210 0 210 0 0 23 c0 20 -7 24 -67 34 -117 21 -108 -33 -110 601 -2 301 1 540 6 532 4 -8 111 -275 236 -592 224 -568 229 -578 256 -578 30 0 -4 -80 325 762 87 225 161 408 164 408 3 0 3 -245 0 -545 -4 -480 -7 -546 -21 -560 -9 -9 -44 -21 -77 -28 -54 -10 -62 -14 -62 -34 l0 -23 265 0 265 0 0 24 c0 21 -6 25 -47 31 -62 9 -101 30 -108 58 -3 12 -4 272 -3 577 l3 555 27 13 c15 7 50 16 78 19 44 5 50 9 50 29 l0 24 -188 0 c-186 0 -189 0 -199 -22 -6 -13 -97 -241 -203 -507 l-193 -484 -32 79 c-42 103 -366 905 -372 922 -4 9 -55 12 -210 12 l-204 0 3 -22z"/>
<path d="M7082 5119 c-23 -5 -56 -17 -72 -29 -33 -24 -140 -139 -140 -152 0 -4 -5 -8 -11 -8 -7 0 -10 31 -7 95 1 52 1 95 -2 95 -3 0 -76 -14 -162 -32 -132 -27 -158 -35 -158 -50 0 -12 13 -21 41 -29 22 -7 51 -26 65 -42 l24 -29 0 -353 c0 -404 2 -393 -83 -402 -41 -5 -47 -8 -47 -29 l0 -24 243 2 c234 3 242 4 242 23 0 17 -9 21 -60 27 -104 13 -100 -3 -100 363 l0 314 44 45 c75 77 131 84 207 26 44 -34 63 -36 104 -15 40 20 60 53 60 95 0 79 -83 127 -188 109z"/>
<path d="M3645 5106 c-69 -22 -127 -56 -183 -109 -101 -97 -141 -195 -149 -367 -4 -89 -1 -130 12 -179 35 -136 104 -227 212 -283 192 -101 426 -71 578 73 64 60 100 124 125 225 77 301 -59 570 -323 640 -64 17 -218 17 -272 0z m223 -65 c72 -37 130 -119 159 -226 19 -72 27 -257 14 -346 -16 -115 -46 -186 -100 -239 -91 -89 -201 -92 -297 -7 -47 41 -76 88 -101 166 -20 63 -29 307 -13 398 11 67 53 169 82 203 69 78 165 98 256 51z"/>
<path d="M4615 5115 c-5 -2 -72 -18 -147 -35 -114 -26 -138 -35 -138 -50 0 -13 11 -19 41 -24 53 -8 86 -42 94 -97 3 -24 5 -189 3 -366 -3 -365 0 -349 -84 -361 -41 -6 -50 -11 -52 -30 l-3 -22 235 0 236 0 0 24 c0 21 -5 24 -52 28 -90 9 -88 -1 -88 373 l0 322 44 41 c71 65 139 96 216 96 80 0 128 -25 156 -82 17 -34 19 -66 19 -374 0 -382 4 -364 -81 -376 -40 -6 -49 -11 -49 -27 0 -19 7 -20 235 -20 228 0 235 1 235 20 0 16 -8 21 -35 23 -57 5 -88 21 -99 54 -7 20 -11 155 -11 367 0 334 0 336 -24 388 -45 95 -140 140 -282 131 -92 -6 -176 -46 -264 -125 l-60 -55 0 91 c0 94 -3 100 -45 86z"/>
<path d="M5829 5106 c-145 -39 -271 -174 -314 -337 -19 -70 -19 -258 -1 -326 45 -168 169 -287 334 -322 248 -52 484 70 562 291 28 78 38 255 20 341 -35 171 -163 309 -325 351 -70 19 -211 20 -276 2z m229 -68 c120 -61 179 -228 169 -482 -8 -212 -53 -317 -158 -370 -86 -43 -163 -31 -236 37 -90 83 -125 196 -125 397 0 157 18 249 62 327 66 115 172 148 288 91z"/>
<path d="M7630 5101 c-72 -23 -114 -50 -177 -112 -98 -97 -143 -219 -143 -389 0 -157 41 -272 130 -361 169 -168 477 -174 660 -11 100 88 151 221 152 392 2 255 -118 428 -337 486 -72 20 -218 17 -285 -5z m238 -60 c117 -60 172 -200 172 -438 0 -159 -17 -248 -63 -324 -91 -152 -283 -155 -382 -6 -53 80 -75 182 -75 347 0 165 22 267 74 346 65 97 172 127 274 75z"/>
<path d="M5893 3699 c-40 -12 -63 -43 -63 -86 0 -44 27 -69 97 -89 32 -9 64 -21 71 -26 19 -16 15 -66 -7 -78 -44 -23 -121 0 -121 36 0 15 -6 16 -32 6 -17 -7 -17 -9 2 -39 52 -87 220 -57 220 39 0 51 -24 76 -88 94 -99 28 -126 59 -84 97 35 32 122 11 122 -29 0 -8 10 -14 25 -14 29 0 30 2 9 41 -15 30 -67 60 -101 58 -10 0 -32 -5 -50 -10z"/>
<path d="M6223 3699 c-40 -12 -63 -43 -63 -86 0 -44 27 -69 97 -88 85 -24 111 -65 65 -102 -34 -28 -122 -4 -122 33 0 15 -6 16 -32 6 -17 -7 -17 -9 2 -39 52 -87 220 -57 220 39 0 53 -23 75 -101 98 -53 16 -73 27 -81 46 -23 51 56 86 110 48 12 -8 22 -22 22 -30 0 -8 10 -14 26 -14 22 0 24 3 18 23 -10 32 -25 48 -61 64 -37 15 -54 15 -100 2z"/>
<path d="M6755 3703 c-116 -31 -144 -231 -43 -306 60 -44 160 -27 198 35 24 40 25 46 3 50 -11 2 -25 -7 -35 -24 -23 -37 -58 -52 -102 -44 -69 13 -103 102 -71 184 21 51 62 77 108 68 35 -7 67 -32 67 -53 0 -7 11 -13 25 -13 14 0 25 3 25 8 0 15 -40 71 -58 81 -25 13 -91 21 -117 14z"/>
<path d="M7100 3688 c-55 -29 -80 -74 -80 -146 0 -108 54 -167 152 -167 95 0 148 59 148 165 0 75 -24 119 -80 148 -24 12 -56 22 -70 22 -14 0 -46 -10 -70 -22z m114 -28 c63 -24 87 -136 43 -201 -28 -42 -64 -56 -113 -43 -48 12 -76 50 -81 111 -9 102 64 167 151 133z"/>
<path d="M2174 3683 c3 -15 13 -18 55 -18 l51 1 0 -143 c0 -136 1 -143 20 -143 19 0 20 7 20 143 l0 142 52 0 c42 0 53 3 56 18 3 15 -8 17 -126 17 -118 0 -130 -2 -128 -17z"/>
<path d="M2530 3540 c0 -153 1 -160 20 -160 18 0 20 7 20 70 l0 70 83 0 83 0 -2 -70 c-1 -67 0 -70 22 -70 l24 0 0 160 0 160 -23 0 c-23 0 -24 -3 -22 -70 l2 -70 -84 0 -83 0 0 70 c0 63 -2 70 -20 70 -19 0 -20 -7 -20 -160z"/>
<path d="M2910 3540 l0 -160 109 0 c104 0 109 1 104 20 -5 18 -14 20 -89 20 l-84 0 0 50 0 50 80 0 c73 0 80 2 80 20 0 18 -7 20 -80 20 l-80 0 0 50 0 50 85 0 c78 0 85 2 85 20 0 19 -7 20 -105 20 l-105 0 0 -160z"/>
<path d="M3410 3541 c0 -154 1 -161 20 -161 18 0 20 8 22 124 l3 124 84 -124 c67 -98 90 -124 108 -124 l23 0 0 160 c0 153 -1 160 -20 160 -18 0 -20 -8 -22 -126 l-3 -126 -85 124 c-60 87 -92 124 -108 126 -22 3 -22 3 -22 -157z"/>
<path d="M3805 3540 l0 -160 108 0 c100 0 107 1 107 20 0 18 -7 20 -85 20 l-85 0 0 50 0 50 80 0 c73 0 80 2 80 20 0 18 -7 20 -80 20 l-80 0 0 50 0 50 85 0 c78 0 85 2 85 20 0 19 -7 20 -107 20 l-108 0 0 -160z"/>
<path d="M4114 3683 c18 -59 86 -297 86 -300 0 -1 12 -3 28 -3 27 0 27 2 57 130 17 71 32 130 36 130 3 0 16 -44 29 -97 39 -166 38 -163 65 -163 14 0 25 1 25 3 0 3 76 268 85 297 6 18 4 21 -17 18 -21 -3 -26 -16 -57 -138 l-35 -135 -34 138 c-34 134 -35 137 -61 137 -26 0 -28 -3 -56 -122 -16 -68 -31 -128 -34 -135 -4 -7 -22 48 -41 122 -32 126 -36 135 -58 135 -18 0 -22 -4 -18 -17z"/>
<path d="M4790 3540 l0 -160 73 0 c126 0 187 52 187 160 0 108 -61 160 -187 160 l-73 0 0 -160z m182 91 c31 -27 33 -34 33 -91 0 -57 -2 -64 -33 -91 -27 -25 -41 -29 -87 -29 l-55 0 0 120 0 120 55 0 c46 0 60 -4 87 -29z"/>
<path d="M5165 3540 c0 -159 0 -160 23 -160 21 0 22 4 22 65 l0 65 39 0 c38 0 40 -2 72 -65 27 -52 39 -65 57 -65 13 0 22 3 20 8 -2 4 -18 35 -36 70 -24 46 -28 62 -18 62 22 0 56 49 56 82 0 70 -44 98 -157 98 l-78 0 0 -160z"/>
<path d="M5515 3540 l0 -160 108 0 c100 0 107 1 107 20 0 18 -7 20 -84 20 l-84 0 -4 50 -3 50 83 0 c75 0 82 2 82 20 0 18 -7 20 -79 20 l-79 0 -4 50 -3 50 88 0 c80 0 87 2 87 20 0 19 -7 20 -107 20 l-108 0 0 -160z"/>
<path d="M7440 3540 l0 -160 68 0 c125 0 192 58 192 166 0 101 -65 154 -187 154 l-73 0 0 -160z m186 86 c44 -50 43 -122 0 -173 -19 -22 -33 -27 -84 -31 l-62 -4 0 122 0 122 62 -4 c51 -4 65 -9 84 -32z"/>
<path d="M7810 3540 l0 -160 110 0 c103 0 110 1 110 20 0 19 -7 20 -90 20 l-90 0 0 50 0 50 85 0 c78 0 85 2 85 20 0 18 -7 20 -85 20 l-85 0 0 50 0 50 90 0 c83 0 90 1 90 20 0 19 -7 20 -110 20 l-110 0 0 -160z"/>
<path d="M3250 2915 l0 -25 1875 0 1875 0 0 25 0 25 -1875 0 -1875 0 0 -25z"/>
</g>
</svg>
